<svg width="290" height="50" viewBox="0 0 290 50" fill="none" xmlns="http://www.w3.org/2000/svg">
<g id="Group 1">
<path id="Rectangle 1" d="M0 0H50V50H0V0Z" fill="#EC1515"/>
<path id="l" d="M30.0478 31.8C30.3411 31.8 30.5945 31.9067 30.8078 32.12C31.0211 32.3333 31.1278 32.5867 31.1278 32.88V38.92C31.1278 39.2133 31.0211 39.4667 30.8078 39.68C30.5945 39.8933 30.3411 40 30.0478 40H6.68781C6.39448 40 6.14115 39.8933 5.92781 39.68C5.71448 39.4667 5.60781 39.2133 5.60781 38.92V13.08C5.60781 12.7867 5.71448 12.5333 5.92781 12.32C6.14115 12.1067 6.39448 12 6.68781 12H15.3278C15.6211 12 15.8745 12.1067 16.0878 12.32C16.3011 12.5333 16.4078 12.7867 16.4078 13.08V31.8H30.0478Z" fill="white"/>
<path id="t" d="M46.8 12C47.0933 12 47.3467 12.1067 47.56 12.32C47.7733 12.5333 47.88 12.7867 47.88 13.08V19.52C47.88 19.8133 47.7733 20.0667 47.56 20.28C47.3467 20.4933 47.0933 20.6 46.8 20.6H38.2V38.92C38.2 39.2133 38.0933 39.4667 37.88 39.68C37.6667 39.8933 37.4133 40 37.12 40H28.88C28.5867 40 28.3333 39.8933 28.12 39.68C27.9067 39.4667 27.8 39.2133 27.8 38.92V20.6H19.2C18.9067 20.6 18.6533 20.4933 18.44 20.28C18.2267 20.0667 18.12 19.8133 18.12 19.52V13.08C18.12 12.7867 18.2267 12.5333 18.44 12.32C18.6533 12.1067 18.9067 12 19.2 12H46.8Z" fill="white"/>
<g id="Group 2">
<path id="lehmann" d="M67.457 33.261C67.435 34.295 67.2645 35.0155 66.9455 35.4225C66.6265 35.8295 66.0765 36.033 65.2955 36.033H57.656C57.095 36.033 56.6385 35.8625 56.2865 35.5215C55.9455 35.1695 55.775 34.68 55.775 34.053V18.081L55.9565 17.8995H57.227C57.898 17.8995 58.3655 18.059 58.6295 18.378C58.8935 18.697 59.0255 19.2195 59.0255 19.9455V33.393C59.9825 33.305 60.8955 33.261 61.7645 33.261H67.457ZM83.6548 33.3105C83.6548 34.3335 83.4953 35.043 83.1763 35.439C82.8573 35.824 82.3238 36.0165 81.5758 36.0165H73.0123C72.4403 36.0165 71.9838 35.846 71.6428 35.505C71.3018 35.153 71.1313 34.6745 71.1313 34.0695V18.1965L71.3128 18.015H83.1268C83.1708 18.246 83.1983 18.4715 83.2093 18.6915C83.2203 18.9115 83.2258 19.115 83.2258 19.302C83.2258 19.478 83.2038 19.6925 83.1598 19.9455C83.1268 20.1985 83.0663 20.4515 82.9783 20.7045H76.1968C75.9768 20.7045 75.6963 20.7045 75.3553 20.7045C75.0143 20.6935 74.6678 20.688 74.3158 20.688C74.3158 20.93 74.3213 21.1885 74.3323 21.4635C74.3433 21.7385 74.3488 22.041 74.3488 22.371V25.572C74.6898 25.561 75.0253 25.5555 75.3553 25.5555C75.6963 25.5555 75.9768 25.5555 76.1968 25.5555H81.4933C81.5703 25.7645 81.6143 25.9955 81.6253 26.2485C81.6473 26.4905 81.6583 26.694 81.6583 26.859C81.6583 27.046 81.6473 27.266 81.6253 27.519C81.6143 27.761 81.5703 27.9865 81.4933 28.1955H76.1968C75.9768 28.1955 75.6963 28.1955 75.3553 28.1955C75.0253 28.1845 74.6898 28.179 74.3488 28.179V31.9575C74.3488 32.2215 74.3433 32.4745 74.3323 32.7165C74.3213 32.9585 74.3158 33.1785 74.3158 33.3765C74.6018 33.3545 74.8933 33.338 75.1903 33.327C75.4983 33.316 75.8613 33.3105 76.2793 33.3105H83.6548ZM91.1719 36C90.9299 36.044 90.6604 36.077 90.3634 36.099C90.0774 36.121 89.8079 36.132 89.5549 36.132C89.3239 36.132 89.0544 36.121 88.7464 36.099C88.4384 36.077 88.1634 36.044 87.9214 36V18.015C88.1634 17.96 88.4384 17.927 88.7464 17.916C89.0544 17.894 89.3239 17.883 89.5549 17.883C89.8079 17.883 90.0774 17.894 90.3634 17.916C90.6604 17.927 90.9299 17.96 91.1719 18.015V23.3775C91.1719 23.7515 91.1664 24.0815 91.1554 24.3675C91.1444 24.6535 91.1389 24.9725 91.1389 25.3245C91.2929 25.3245 91.5734 25.319 91.9804 25.308C92.3984 25.297 92.6789 25.2915 92.8219 25.2915H97.6234C97.7554 25.2915 98.0249 25.297 98.4319 25.308C98.8499 25.319 99.1359 25.3245 99.2899 25.3245C99.2899 24.9725 99.2844 24.6535 99.2734 24.3675C99.2624 24.0815 99.2569 23.7515 99.2569 23.3775V18.015C99.4879 17.96 99.7464 17.927 100.032 17.916C100.318 17.894 100.588 17.883 100.841 17.883C101.083 17.883 101.358 17.894 101.666 17.916C101.974 17.927 102.254 17.96 102.507 18.015V36C102.254 36.044 101.979 36.077 101.682 36.099C101.396 36.121 101.121 36.132 100.857 36.132C100.604 36.132 100.335 36.121 100.049 36.099C99.7629 36.077 99.4989 36.044 99.2569 36V29.9445C99.2569 29.5595 99.2624 29.224 99.2734 28.938C99.2844 28.652 99.2899 28.3275 99.2899 27.9645C99.1359 27.9645 98.8499 27.97 98.4319 27.981C98.0249 27.992 97.7554 27.9975 97.6234 27.9975H92.8219C92.6789 27.9975 92.3984 27.992 91.9804 27.981C91.5734 27.97 91.2929 27.9645 91.1389 27.9645C91.1389 28.3275 91.1444 28.652 91.1554 28.938C91.1664 29.224 91.1719 29.5595 91.1719 29.9445V36ZM109.348 18.015C109.656 17.938 110.013 17.8885 110.42 17.8665C110.827 17.8335 111.185 17.817 111.493 17.817C111.79 17.817 112.142 17.8335 112.549 17.8665C112.956 17.8885 113.297 17.938 113.572 18.015L116.261 26.5125C116.349 26.7875 116.465 27.178 116.608 27.684C116.762 28.179 116.905 28.6795 117.037 29.1855C117.18 29.6805 117.273 30.071 117.317 30.357H117.482C117.526 30.071 117.609 29.6805 117.73 29.1855C117.862 28.6795 117.999 28.179 118.142 27.684C118.296 27.189 118.423 26.7985 118.522 26.5125L121.162 18.015C121.437 17.949 121.778 17.8995 122.185 17.8665C122.603 17.8335 122.96 17.817 123.257 17.817C123.554 17.817 123.917 17.8335 124.346 17.8665C124.786 17.8995 125.144 17.949 125.419 18.015L127.135 35.9505C126.629 36.0825 126.062 36.1485 125.435 36.1485C124.918 36.1485 124.423 36.1045 123.95 36.0165L123.191 26.826C123.147 26.32 123.114 25.737 123.092 25.077C123.07 24.406 123.048 23.746 123.026 23.097C123.015 22.437 123.01 21.865 123.01 21.381H122.828L119 33.3105C118.769 33.3545 118.494 33.3875 118.175 33.4095C117.867 33.4315 117.592 33.4425 117.35 33.4425C117.097 33.4425 116.822 33.4315 116.525 33.4095C116.228 33.3875 115.964 33.3545 115.733 33.3105L111.922 21.381H111.74C111.74 21.865 111.729 22.437 111.707 23.097C111.696 23.746 111.674 24.406 111.641 25.077C111.619 25.737 111.586 26.32 111.542 26.826L110.8 36.0165C110.338 36.1045 109.837 36.1485 109.298 36.1485C108.638 36.1485 108.083 36.0825 107.632 35.9505L109.348 18.015ZM136.274 31.908C136.153 31.908 135.878 31.9025 135.449 31.8915C135.031 31.8805 134.695 31.875 134.442 31.875L132.957 36.0165C132.572 36.1155 132.11 36.165 131.571 36.165C130.933 36.165 130.427 36.088 130.053 35.934L129.954 35.769L136.538 18.015C136.802 17.971 137.121 17.938 137.495 17.916C137.869 17.883 138.193 17.8665 138.468 17.8665C138.721 17.8665 139.018 17.883 139.359 17.916C139.711 17.938 140.019 17.971 140.283 18.015L146.834 35.8515C146.581 35.9725 146.278 36.066 145.926 36.132C145.585 36.198 145.266 36.231 144.969 36.231C144.518 36.231 144.139 36.1375 143.831 35.9505C143.534 35.7635 143.275 35.351 143.055 34.713L142.049 31.875C141.829 31.875 141.515 31.8805 141.108 31.8915C140.712 31.9025 140.448 31.908 140.316 31.908H136.274ZM136.835 25.1595L135.366 29.2515C135.608 29.2515 135.894 29.246 136.224 29.235C136.565 29.224 136.791 29.2185 136.901 29.2185H139.772C139.882 29.2185 140.08 29.224 140.366 29.235C140.652 29.246 140.905 29.2515 141.125 29.2515L139.92 25.8525C139.678 25.1485 139.403 24.307 139.095 23.328C138.798 22.349 138.54 21.491 138.32 20.754H138.171C137.973 21.458 137.748 22.2335 137.495 23.0805C137.242 23.9165 137.022 24.6095 136.835 25.1595ZM155.052 25.539C154.755 25.022 154.425 24.4115 154.062 23.7075C153.699 22.9925 153.386 22.382 153.122 21.876L152.99 21.909C153.023 22.547 153.056 23.273 153.089 24.087C153.122 24.89 153.144 25.66 153.155 26.397C153.177 27.123 153.188 27.6895 153.188 28.0965V36C152.913 36.044 152.643 36.077 152.379 36.099C152.126 36.121 151.89 36.132 151.67 36.132C151.45 36.132 151.202 36.121 150.927 36.099C150.652 36.077 150.383 36.044 150.119 36V18.0645C150.383 18.0095 150.696 17.9655 151.059 17.9325C151.433 17.8995 151.747 17.883 152 17.883C152.275 17.883 152.588 17.894 152.94 17.916C153.303 17.927 153.611 17.96 153.864 18.015L159.953 28.509C160.25 29.015 160.585 29.653 160.959 30.423C161.344 31.193 161.674 31.831 161.949 32.337L162.098 32.304C162.054 31.732 162.004 31.0445 161.949 30.2415C161.905 29.4275 161.867 28.6355 161.834 27.8655C161.801 27.0955 161.784 26.474 161.784 26.001V19.797C161.784 19.082 161.916 18.587 162.18 18.312C162.444 18.026 162.906 17.883 163.566 17.883H164.721L164.903 18.0645V35.967C164.628 36.022 164.309 36.0605 163.946 36.0825C163.594 36.1155 163.286 36.132 163.022 36.132C162.758 36.132 162.433 36.121 162.048 36.099C161.674 36.088 161.366 36.055 161.124 36L155.052 25.539ZM175.484 25.539C175.187 25.022 174.857 24.4115 174.494 23.7075C174.131 22.9925 173.817 22.382 173.553 21.876L173.421 21.909C173.454 22.547 173.487 23.273 173.52 24.087C173.553 24.89 173.575 25.66 173.586 26.397C173.608 27.123 173.619 27.6895 173.619 28.0965V36C173.344 36.044 173.075 36.077 172.811 36.099C172.558 36.121 172.321 36.132 172.101 36.132C171.881 36.132 171.634 36.121 171.359 36.099C171.084 36.077 170.814 36.044 170.55 36V18.0645C170.814 18.0095 171.128 17.9655 171.491 17.9325C171.865 17.8995 172.178 17.883 172.431 17.883C172.706 17.883 173.02 17.894 173.372 17.916C173.735 17.927 174.043 17.96 174.296 18.015L180.384 28.509C180.681 29.015 181.017 29.653 181.391 30.423C181.776 31.193 182.106 31.831 182.381 32.337L182.529 32.304C182.485 31.732 182.436 31.0445 182.381 30.2415C182.337 29.4275 182.298 28.6355 182.265 27.8655C182.232 27.0955 182.216 26.474 182.216 26.001V19.797C182.216 19.082 182.348 18.587 182.612 18.312C182.876 18.026 183.338 17.883 183.998 17.883H185.153L185.334 18.0645V35.967C185.059 36.022 184.74 36.0605 184.377 36.0825C184.025 36.1155 183.717 36.132 183.453 36.132C183.189 36.132 182.865 36.121 182.48 36.099C182.106 36.088 181.798 36.055 181.556 36L175.484 25.539Z" fill="#EC1515"/>
<path id="trade" d="M194.052 22.635C194.052 22.283 194.057 21.964 194.068 21.678C194.079 21.381 194.085 21.0455 194.085 20.6715C193.876 20.6715 193.584 20.677 193.21 20.688C192.847 20.699 192.561 20.7045 192.352 20.7045H188.838C188.794 20.4735 188.761 20.2425 188.739 20.0115C188.717 19.7805 188.706 19.5715 188.706 19.3845C188.706 19.1865 188.717 18.9665 188.739 18.7245C188.761 18.4825 188.794 18.246 188.838 18.015H202.417C202.472 18.202 202.516 18.4165 202.549 18.6585C202.582 18.8895 202.599 19.0875 202.599 19.2525C202.599 19.7255 202.472 20.0885 202.219 20.3415C201.977 20.5835 201.521 20.7045 200.85 20.7045H198.969C198.771 20.7045 198.485 20.699 198.111 20.688C197.748 20.677 197.467 20.6715 197.269 20.6715C197.269 21.0455 197.275 21.381 197.286 21.678C197.297 21.964 197.302 22.283 197.302 22.635V36C197.093 36.044 196.835 36.077 196.527 36.099C196.219 36.121 195.938 36.132 195.685 36.132C195.443 36.132 195.168 36.121 194.86 36.099C194.552 36.077 194.283 36.044 194.052 36V22.635ZM218.887 23.262C218.887 24.439 218.507 25.4565 217.748 26.3145C216.989 27.1615 216.087 27.7115 215.042 27.9645C215.581 28.1735 216.016 28.465 216.346 28.839C216.676 29.213 216.962 29.6695 217.204 30.2085L218.491 33.096C218.689 33.525 218.892 33.9265 219.101 34.3005C219.321 34.6745 219.552 34.977 219.794 35.208C219.585 35.505 219.277 35.747 218.87 35.934C218.474 36.121 218.062 36.2145 217.633 36.2145C217.083 36.2145 216.659 36.0715 216.362 35.7855C216.065 35.4995 215.796 35.0705 215.554 34.4985L213.92 30.786C213.645 30.148 213.299 29.6695 212.881 29.3505C212.474 29.0315 211.847 28.872 211 28.872H208.805V36C208.552 36.044 208.283 36.077 207.997 36.099C207.711 36.121 207.441 36.132 207.188 36.132C206.957 36.132 206.688 36.121 206.38 36.099C206.083 36.077 205.813 36.044 205.571 36V18.18L205.753 18.015C206.897 17.982 207.98 17.9545 209.003 17.9325C210.026 17.9105 211.066 17.8995 212.122 17.8995C214.168 17.8995 215.807 18.3505 217.039 19.2525C218.271 20.1435 218.887 21.48 218.887 23.262ZM208.805 20.358V26.331C209.388 26.32 209.96 26.309 210.521 26.298C211.082 26.287 211.55 26.2815 211.924 26.2815C212.87 26.2815 213.601 26.133 214.118 25.836C214.635 25.528 214.993 25.143 215.191 24.681C215.4 24.219 215.504 23.7625 215.504 23.3115C215.504 22.8385 215.4 22.382 215.191 21.942C214.993 21.491 214.641 21.1225 214.135 20.8365C213.629 20.5395 212.919 20.391 212.006 20.391C211.555 20.391 211.033 20.391 210.439 20.391C209.845 20.391 209.3 20.38 208.805 20.358ZM227.498 31.908C227.377 31.908 227.102 31.9025 226.673 31.8915C226.255 31.8805 225.919 31.875 225.666 31.875L224.181 36.0165C223.796 36.1155 223.334 36.165 222.795 36.165C222.157 36.165 221.651 36.088 221.277 35.934L221.178 35.769L227.762 18.015C228.026 17.971 228.345 17.938 228.719 17.916C229.093 17.883 229.417 17.8665 229.692 17.8665C229.945 17.8665 230.242 17.883 230.583 17.916C230.935 17.938 231.243 17.971 231.507 18.015L238.058 35.8515C237.805 35.9725 237.502 36.066 237.15 36.132C236.809 36.198 236.49 36.231 236.193 36.231C235.742 36.231 235.363 36.1375 235.055 35.9505C234.758 35.7635 234.499 35.351 234.279 34.713L233.273 31.875C233.053 31.875 232.739 31.8805 232.332 31.8915C231.936 31.9025 231.672 31.908 231.54 31.908H227.498ZM228.059 25.1595L226.59 29.2515C226.832 29.2515 227.118 29.246 227.448 29.235C227.789 29.224 228.015 29.2185 228.125 29.2185H230.996C231.106 29.2185 231.304 29.224 231.59 29.235C231.876 29.246 232.129 29.2515 232.349 29.2515L231.144 25.8525C230.902 25.1485 230.627 24.307 230.319 23.328C230.022 22.349 229.764 21.491 229.544 20.754H229.395C229.197 21.458 228.972 22.2335 228.719 23.0805C228.466 23.9165 228.246 24.6095 228.059 25.1595ZM256.242 27.0405C256.242 30.0105 255.582 32.2655 254.262 33.8055C252.942 35.3455 250.792 36.1155 247.811 36.1155C247.008 36.1155 246.287 36.11 245.649 36.099C245.022 36.088 244.384 36.077 243.735 36.066C243.097 36.055 242.36 36.0385 241.524 36.0165L241.343 35.835V18.18L241.524 18.015C242.371 17.993 243.114 17.9765 243.752 17.9655C244.39 17.9435 245.022 17.927 245.649 17.916C246.287 17.905 247.008 17.8995 247.811 17.8995C250.781 17.8995 252.926 18.6915 254.246 20.2755C255.577 21.8595 256.242 24.1145 256.242 27.0405ZM252.876 27.0405C252.876 26.2815 252.816 25.517 252.695 24.747C252.574 23.977 252.337 23.273 251.985 22.635C251.633 21.986 251.122 21.469 250.451 21.084C249.78 20.699 248.894 20.5065 247.794 20.5065C247.178 20.5065 246.623 20.501 246.128 20.49C245.644 20.479 245.127 20.4735 244.577 20.4735V33.5745C245.138 33.5745 245.66 33.569 246.144 33.558C246.628 33.547 247.178 33.5415 247.794 33.5415C248.894 33.5415 249.78 33.349 250.451 32.964C251.122 32.568 251.633 32.051 251.985 31.413C252.337 30.775 252.574 30.0765 252.695 29.3175C252.816 28.5475 252.876 27.7885 252.876 27.0405ZM273.041 33.3105C273.041 34.3335 272.881 35.043 272.562 35.439C272.243 35.824 271.71 36.0165 270.962 36.0165H262.398C261.826 36.0165 261.37 35.846 261.029 35.505C260.688 35.153 260.517 34.6745 260.517 34.0695V18.1965L260.699 18.015H272.513C272.557 18.246 272.584 18.4715 272.595 18.6915C272.606 18.9115 272.612 19.115 272.612 19.302C272.612 19.478 272.59 19.6925 272.546 19.9455C272.513 20.1985 272.452 20.4515 272.364 20.7045H265.583C265.363 20.7045 265.082 20.7045 264.741 20.7045C264.4 20.6935 264.054 20.688 263.702 20.688C263.702 20.93 263.707 21.1885 263.718 21.4635C263.729 21.7385 263.735 22.041 263.735 22.371V25.572C264.076 25.561 264.411 25.5555 264.741 25.5555C265.082 25.5555 265.363 25.5555 265.583 25.5555H270.879C270.956 25.7645 271 25.9955 271.011 26.2485C271.033 26.4905 271.044 26.694 271.044 26.859C271.044 27.046 271.033 27.266 271.011 27.519C271 27.761 270.956 27.9865 270.879 28.1955H265.583C265.363 28.1955 265.082 28.1955 264.741 28.1955C264.411 28.1845 264.076 28.179 263.735 28.179V31.9575C263.735 32.2215 263.729 32.4745 263.718 32.7165C263.707 32.9585 263.702 33.1785 263.702 33.3765C263.988 33.3545 264.279 33.338 264.576 33.327C264.884 33.316 265.247 33.3105 265.665 33.3105H273.041Z" fill="white"/>
</g>
</g>
</svg>
