<svg width="438" height="119" viewBox="0 0 438 119" fill="none" xmlns="http://www.w3.org/2000/svg">
<g id="Group 1">
<path id="Rectangle 1" d="M0 0H148.576V119H0V0Z" fill="#EC1515"/>
<path id="l" d="M78.5174 74.9145C79.104 74.9145 79.6107 75.1278 80.0374 75.5545C80.464 75.9811 80.6774 76.4878 80.6774 77.0745V89.1545C80.6774 89.7411 80.464 90.2478 80.0374 90.6745C79.6107 91.1011 79.104 91.3145 78.5174 91.3145H31.7974C31.2107 91.3145 30.704 91.1011 30.2774 90.6745C29.8507 90.2478 29.6374 89.7411 29.6374 89.1545V37.4745C29.6374 36.8878 29.8507 36.3811 30.2774 35.9545C30.704 35.5278 31.2107 35.3144 31.7974 35.3144H49.0774C49.664 35.3144 50.1707 35.5278 50.5974 35.9545C51.024 36.3811 51.2374 36.8878 51.2374 37.4745V74.9145H78.5174Z" fill="white"/>
<path id="t" d="M124.846 35.3144C125.432 35.3144 125.939 35.5278 126.366 35.9545C126.792 36.3811 127.006 36.8878 127.006 37.4745V50.3545C127.006 50.9411 126.792 51.4478 126.366 51.8745C125.939 52.3011 125.432 52.5145 124.846 52.5145H107.646V89.1545C107.646 89.7411 107.432 90.2478 107.006 90.6745C106.579 91.1011 106.072 91.3145 105.486 91.3145H89.0057C88.4191 91.3145 87.9124 91.1011 87.4857 90.6745C87.0591 90.2478 86.8457 89.7411 86.8457 89.1545V52.5145H69.6457C69.0591 52.5145 68.5524 52.3011 68.1257 51.8745C67.6991 51.4478 67.4857 50.9411 67.4857 50.3545V37.4745C67.4857 36.8878 67.6991 36.3811 68.1257 35.9545C68.5524 35.5278 69.0591 35.3144 69.6457 35.3144H124.846Z" fill="white"/>
<path id="lehmann" d="M184.557 69.261C184.535 70.295 184.365 71.0155 184.046 71.4225C183.727 71.8295 183.177 72.033 182.396 72.033H174.756C174.195 72.033 173.738 71.8625 173.386 71.5215C173.045 71.1695 172.875 70.68 172.875 70.053V54.081L173.056 53.8995H174.327C174.998 53.8995 175.465 54.059 175.73 54.378C175.993 54.697 176.125 55.2195 176.125 55.9455V69.393C177.083 69.305 177.996 69.261 178.865 69.261H184.557ZM204.055 69.3105C204.055 70.3335 203.895 71.043 203.576 71.439C203.257 71.824 202.724 72.0165 201.976 72.0165H193.412C192.84 72.0165 192.384 71.846 192.043 71.505C191.702 71.153 191.531 70.6745 191.531 70.0695V54.1965L191.713 54.015H203.527C203.571 54.246 203.598 54.4715 203.609 54.6915C203.62 54.9115 203.626 55.115 203.626 55.302C203.626 55.478 203.604 55.6925 203.56 55.9455C203.527 56.1985 203.466 56.4515 203.378 56.7045H196.597C196.377 56.7045 196.096 56.7045 195.755 56.7045C195.414 56.6935 195.068 56.688 194.716 56.688C194.716 56.93 194.721 57.1885 194.732 57.4635C194.743 57.7385 194.749 58.041 194.749 58.371V61.572C195.09 61.561 195.425 61.5555 195.755 61.5555C196.096 61.5555 196.377 61.5555 196.597 61.5555H201.893C201.97 61.7645 202.014 61.9955 202.025 62.2485C202.047 62.4905 202.058 62.694 202.058 62.859C202.058 63.046 202.047 63.266 202.025 63.519C202.014 63.761 201.97 63.9865 201.893 64.1955H196.597C196.377 64.1955 196.096 64.1955 195.755 64.1955C195.425 64.1845 195.09 64.179 194.749 64.179V67.9575C194.749 68.2215 194.743 68.4745 194.732 68.7165C194.721 68.9585 194.716 69.1785 194.716 69.3765C195.002 69.3545 195.293 69.338 195.59 69.327C195.898 69.316 196.261 69.3105 196.679 69.3105H204.055ZM214.872 72C214.63 72.044 214.36 72.077 214.063 72.099C213.777 72.121 213.508 72.132 213.255 72.132C213.024 72.132 212.754 72.121 212.446 72.099C212.138 72.077 211.863 72.044 211.621 72V54.015C211.863 53.96 212.138 53.927 212.446 53.916C212.754 53.894 213.024 53.883 213.255 53.883C213.508 53.883 213.777 53.894 214.063 53.916C214.36 53.927 214.63 53.96 214.872 54.015V59.3775C214.872 59.7515 214.866 60.0815 214.855 60.3675C214.844 60.6535 214.839 60.9725 214.839 61.3245C214.993 61.3245 215.273 61.319 215.68 61.308C216.098 61.297 216.379 61.2915 216.522 61.2915H221.323C221.455 61.2915 221.725 61.297 222.132 61.308C222.55 61.319 222.836 61.3245 222.99 61.3245C222.99 60.9725 222.984 60.6535 222.973 60.3675C222.962 60.0815 222.957 59.7515 222.957 59.3775V54.015C223.188 53.96 223.446 53.927 223.732 53.916C224.018 53.894 224.288 53.883 224.541 53.883C224.783 53.883 225.058 53.894 225.366 53.916C225.674 53.927 225.954 53.96 226.207 54.015V72C225.954 72.044 225.679 72.077 225.382 72.099C225.096 72.121 224.821 72.132 224.557 72.132C224.304 72.132 224.035 72.121 223.749 72.099C223.463 72.077 223.199 72.044 222.957 72V65.9445C222.957 65.5595 222.962 65.224 222.973 64.938C222.984 64.652 222.99 64.3275 222.99 63.9645C222.836 63.9645 222.55 63.97 222.132 63.981C221.725 63.992 221.455 63.9975 221.323 63.9975H216.522C216.379 63.9975 216.098 63.992 215.68 63.981C215.273 63.97 214.993 63.9645 214.839 63.9645C214.839 64.3275 214.844 64.652 214.855 64.938C214.866 65.224 214.872 65.5595 214.872 65.9445V72ZM236.348 54.015C236.656 53.938 237.013 53.8885 237.42 53.8665C237.827 53.8335 238.185 53.817 238.493 53.817C238.79 53.817 239.142 53.8335 239.549 53.8665C239.956 53.8885 240.297 53.938 240.572 54.015L243.261 62.5125C243.349 62.7875 243.465 63.178 243.608 63.684C243.762 64.179 243.905 64.6795 244.037 65.1855C244.18 65.6805 244.273 66.071 244.317 66.357H244.482C244.526 66.071 244.609 65.6805 244.73 65.1855C244.862 64.6795 244.999 64.179 245.142 63.684C245.296 63.189 245.423 62.7985 245.522 62.5125L248.162 54.015C248.437 53.949 248.778 53.8995 249.185 53.8665C249.603 53.8335 249.96 53.817 250.257 53.817C250.554 53.817 250.917 53.8335 251.346 53.8665C251.786 53.8995 252.144 53.949 252.419 54.015L254.135 71.9505C253.629 72.0825 253.062 72.1485 252.435 72.1485C251.918 72.1485 251.423 72.1045 250.95 72.0165L250.191 62.826C250.147 62.32 250.114 61.737 250.092 61.077C250.07 60.406 250.048 59.746 250.026 59.097C250.015 58.437 250.01 57.865 250.01 57.381H249.828L246 69.3105C245.769 69.3545 245.494 69.3875 245.175 69.4095C244.867 69.4315 244.592 69.4425 244.35 69.4425C244.097 69.4425 243.822 69.4315 243.525 69.4095C243.228 69.3875 242.964 69.3545 242.733 69.3105L238.922 57.381H238.74C238.74 57.865 238.729 58.437 238.707 59.097C238.696 59.746 238.674 60.406 238.641 61.077C238.619 61.737 238.586 62.32 238.542 62.826L237.8 72.0165C237.338 72.1045 236.837 72.1485 236.298 72.1485C235.638 72.1485 235.083 72.0825 234.632 71.9505L236.348 54.015ZM266.574 67.908C266.453 67.908 266.178 67.9025 265.749 67.8915C265.331 67.8805 264.995 67.875 264.742 67.875L263.257 72.0165C262.872 72.1155 262.41 72.165 261.871 72.165C261.233 72.165 260.727 72.088 260.353 71.934L260.254 71.769L266.838 54.015C267.102 53.971 267.421 53.938 267.795 53.916C268.169 53.883 268.493 53.8665 268.768 53.8665C269.021 53.8665 269.318 53.883 269.659 53.916C270.011 53.938 270.319 53.971 270.583 54.015L277.134 71.8515C276.881 71.9725 276.578 72.066 276.226 72.132C275.885 72.198 275.566 72.231 275.269 72.231C274.818 72.231 274.439 72.1375 274.131 71.9505C273.834 71.7635 273.575 71.351 273.355 70.713L272.349 67.875C272.129 67.875 271.815 67.8805 271.408 67.8915C271.012 67.9025 270.748 67.908 270.616 67.908H266.574ZM267.135 61.1595L265.666 65.2515C265.908 65.2515 266.194 65.246 266.524 65.235C266.865 65.224 267.091 65.2185 267.201 65.2185H270.072C270.182 65.2185 270.38 65.224 270.666 65.235C270.952 65.246 271.205 65.2515 271.425 65.2515L270.22 61.8525C269.978 61.1485 269.703 60.307 269.395 59.328C269.098 58.349 268.84 57.491 268.62 56.754H268.471C268.273 57.458 268.048 58.2335 267.795 59.0805C267.542 59.9165 267.322 60.6095 267.135 61.1595ZM288.652 61.539C288.355 61.022 288.025 60.4115 287.662 59.7075C287.299 58.9925 286.986 58.382 286.722 57.876L286.59 57.909C286.623 58.547 286.656 59.273 286.689 60.087C286.722 60.89 286.744 61.66 286.755 62.397C286.777 63.123 286.788 63.6895 286.788 64.0965V72C286.513 72.044 286.243 72.077 285.979 72.099C285.726 72.121 285.49 72.132 285.27 72.132C285.05 72.132 284.802 72.121 284.527 72.099C284.252 72.077 283.983 72.044 283.719 72V54.0645C283.983 54.0095 284.296 53.9655 284.659 53.9325C285.033 53.8995 285.347 53.883 285.6 53.883C285.875 53.883 286.188 53.894 286.54 53.916C286.903 53.927 287.211 53.96 287.464 54.015L293.553 64.509C293.85 65.015 294.185 65.653 294.559 66.423C294.944 67.193 295.274 67.831 295.549 68.337L295.698 68.304C295.654 67.732 295.604 67.0445 295.549 66.2415C295.505 65.4275 295.467 64.6355 295.434 63.8655C295.401 63.0955 295.384 62.474 295.384 62.001V55.797C295.384 55.082 295.516 54.587 295.78 54.312C296.044 54.026 296.506 53.883 297.166 53.883H298.321L298.503 54.0645V71.967C298.228 72.022 297.909 72.0605 297.546 72.0825C297.194 72.1155 296.886 72.132 296.622 72.132C296.358 72.132 296.033 72.121 295.648 72.099C295.274 72.088 294.966 72.055 294.724 72L288.652 61.539ZM312.384 61.539C312.087 61.022 311.757 60.4115 311.394 59.7075C311.031 58.9925 310.717 58.382 310.453 57.876L310.321 57.909C310.354 58.547 310.387 59.273 310.42 60.087C310.453 60.89 310.475 61.66 310.486 62.397C310.508 63.123 310.519 63.6895 310.519 64.0965V72C310.244 72.044 309.975 72.077 309.711 72.099C309.458 72.121 309.221 72.132 309.001 72.132C308.781 72.132 308.534 72.121 308.259 72.099C307.984 72.077 307.714 72.044 307.45 72V54.0645C307.714 54.0095 308.028 53.9655 308.391 53.9325C308.765 53.8995 309.078 53.883 309.331 53.883C309.606 53.883 309.92 53.894 310.272 53.916C310.635 53.927 310.943 53.96 311.196 54.015L317.284 64.509C317.581 65.015 317.917 65.653 318.291 66.423C318.676 67.193 319.006 67.831 319.281 68.337L319.429 68.304C319.385 67.732 319.336 67.0445 319.281 66.2415C319.237 65.4275 319.198 64.6355 319.165 63.8655C319.132 63.0955 319.116 62.474 319.116 62.001V55.797C319.116 55.082 319.248 54.587 319.512 54.312C319.776 54.026 320.238 53.883 320.898 53.883H322.053L322.234 54.0645V71.967C321.959 72.022 321.64 72.0605 321.277 72.0825C320.925 72.1155 320.617 72.132 320.353 72.132C320.089 72.132 319.765 72.121 319.38 72.099C319.006 72.088 318.698 72.055 318.456 72L312.384 61.539Z" fill="#EC1515"/>
<path id="trade" d="M335.452 58.635C335.452 58.283 335.457 57.964 335.468 57.678C335.479 57.381 335.485 57.0455 335.485 56.6715C335.276 56.6715 334.984 56.677 334.61 56.688C334.247 56.699 333.961 56.7045 333.752 56.7045H330.238C330.194 56.4735 330.161 56.2425 330.139 56.0115C330.117 55.7805 330.106 55.5715 330.106 55.3845C330.106 55.1865 330.117 54.9665 330.139 54.7245C330.161 54.4825 330.194 54.246 330.238 54.015H343.817C343.872 54.202 343.916 54.4165 343.949 54.6585C343.982 54.8895 343.999 55.0875 343.999 55.2525C343.999 55.7255 343.872 56.0885 343.619 56.3415C343.377 56.5835 342.921 56.7045 342.25 56.7045H340.369C340.171 56.7045 339.885 56.699 339.511 56.688C339.148 56.677 338.867 56.6715 338.669 56.6715C338.669 57.0455 338.675 57.381 338.686 57.678C338.697 57.964 338.702 58.283 338.702 58.635V72C338.493 72.044 338.235 72.077 337.927 72.099C337.619 72.121 337.338 72.132 337.085 72.132C336.843 72.132 336.568 72.121 336.26 72.099C335.952 72.077 335.683 72.044 335.452 72V58.635ZM363.587 59.262C363.587 60.439 363.207 61.4565 362.448 62.3145C361.689 63.1615 360.787 63.7115 359.742 63.9645C360.281 64.1735 360.716 64.465 361.046 64.839C361.376 65.213 361.662 65.6695 361.904 66.2085L363.191 69.096C363.389 69.525 363.592 69.9265 363.801 70.3005C364.021 70.6745 364.252 70.977 364.494 71.208C364.285 71.505 363.977 71.747 363.57 71.934C363.174 72.121 362.762 72.2145 362.333 72.2145C361.783 72.2145 361.359 72.0715 361.062 71.7855C360.765 71.4995 360.496 71.0705 360.254 70.4985L358.62 66.786C358.345 66.148 357.999 65.6695 357.581 65.3505C357.174 65.0315 356.547 64.872 355.7 64.872H353.505V72C353.252 72.044 352.983 72.077 352.697 72.099C352.411 72.121 352.141 72.132 351.888 72.132C351.657 72.132 351.388 72.121 351.08 72.099C350.783 72.077 350.513 72.044 350.271 72V54.18L350.453 54.015C351.597 53.982 352.68 53.9545 353.703 53.9325C354.726 53.9105 355.766 53.8995 356.822 53.8995C358.868 53.8995 360.507 54.3505 361.739 55.2525C362.971 56.1435 363.587 57.48 363.587 59.262ZM353.505 56.358V62.331C354.088 62.32 354.66 62.309 355.221 62.298C355.782 62.287 356.25 62.2815 356.624 62.2815C357.57 62.2815 358.301 62.133 358.818 61.836C359.335 61.528 359.693 61.143 359.891 60.681C360.1 60.219 360.204 59.7625 360.204 59.3115C360.204 58.8385 360.1 58.382 359.891 57.942C359.693 57.491 359.341 57.1225 358.835 56.8365C358.329 56.5395 357.619 56.391 356.706 56.391C356.255 56.391 355.733 56.391 355.139 56.391C354.545 56.391 354 56.38 353.505 56.358ZM375.498 67.908C375.377 67.908 375.102 67.9025 374.673 67.8915C374.255 67.8805 373.919 67.875 373.666 67.875L372.181 72.0165C371.796 72.1155 371.334 72.165 370.795 72.165C370.157 72.165 369.651 72.088 369.277 71.934L369.178 71.769L375.762 54.015C376.026 53.971 376.345 53.938 376.719 53.916C377.093 53.883 377.417 53.8665 377.692 53.8665C377.945 53.8665 378.242 53.883 378.583 53.916C378.935 53.938 379.243 53.971 379.507 54.015L386.058 71.8515C385.805 71.9725 385.502 72.066 385.15 72.132C384.809 72.198 384.49 72.231 384.193 72.231C383.742 72.231 383.363 72.1375 383.055 71.9505C382.758 71.7635 382.499 71.351 382.279 70.713L381.273 67.875C381.053 67.875 380.739 67.8805 380.332 67.8915C379.936 67.9025 379.672 67.908 379.54 67.908H375.498ZM376.059 61.1595L374.59 65.2515C374.832 65.2515 375.118 65.246 375.448 65.235C375.789 65.224 376.015 65.2185 376.125 65.2185H378.996C379.106 65.2185 379.304 65.224 379.59 65.235C379.876 65.246 380.129 65.2515 380.349 65.2515L379.144 61.8525C378.902 61.1485 378.627 60.307 378.319 59.328C378.022 58.349 377.764 57.491 377.544 56.754H377.395C377.197 57.458 376.972 58.2335 376.719 59.0805C376.466 59.9165 376.246 60.6095 376.059 61.1595ZM407.542 63.0405C407.542 66.0105 406.882 68.2655 405.562 69.8055C404.242 71.3455 402.092 72.1155 399.111 72.1155C398.308 72.1155 397.587 72.11 396.949 72.099C396.322 72.088 395.684 72.077 395.035 72.066C394.397 72.055 393.66 72.0385 392.824 72.0165L392.643 71.835V54.18L392.824 54.015C393.671 53.993 394.414 53.9765 395.052 53.9655C395.69 53.9435 396.322 53.927 396.949 53.916C397.587 53.905 398.308 53.8995 399.111 53.8995C402.081 53.8995 404.226 54.6915 405.546 56.2755C406.877 57.8595 407.542 60.1145 407.542 63.0405ZM404.176 63.0405C404.176 62.2815 404.116 61.517 403.995 60.747C403.874 59.977 403.637 59.273 403.285 58.635C402.933 57.986 402.422 57.469 401.751 57.084C401.08 56.699 400.194 56.5065 399.094 56.5065C398.478 56.5065 397.923 56.501 397.428 56.49C396.944 56.479 396.427 56.4735 395.877 56.4735V69.5745C396.438 69.5745 396.96 69.569 397.444 69.558C397.928 69.547 398.478 69.5415 399.094 69.5415C400.194 69.5415 401.08 69.349 401.751 68.964C402.422 68.568 402.933 68.051 403.285 67.413C403.637 66.775 403.874 66.0765 403.995 65.3175C404.116 64.5475 404.176 63.7885 404.176 63.0405ZM427.641 69.3105C427.641 70.3335 427.481 71.043 427.162 71.439C426.843 71.824 426.31 72.0165 425.562 72.0165H416.998C416.426 72.0165 415.97 71.846 415.629 71.505C415.288 71.153 415.117 70.6745 415.117 70.0695V54.1965L415.299 54.015H427.113C427.157 54.246 427.184 54.4715 427.195 54.6915C427.206 54.9115 427.212 55.115 427.212 55.302C427.212 55.478 427.19 55.6925 427.146 55.9455C427.113 56.1985 427.052 56.4515 426.964 56.7045H420.183C419.963 56.7045 419.682 56.7045 419.341 56.7045C419 56.6935 418.654 56.688 418.302 56.688C418.302 56.93 418.307 57.1885 418.318 57.4635C418.329 57.7385 418.335 58.041 418.335 58.371V61.572C418.676 61.561 419.011 61.5555 419.341 61.5555C419.682 61.5555 419.963 61.5555 420.183 61.5555H425.479C425.556 61.7645 425.6 61.9955 425.611 62.2485C425.633 62.4905 425.644 62.694 425.644 62.859C425.644 63.046 425.633 63.266 425.611 63.519C425.6 63.761 425.556 63.9865 425.479 64.1955H420.183C419.963 64.1955 419.682 64.1955 419.341 64.1955C419.011 64.1845 418.676 64.179 418.335 64.179V67.9575C418.335 68.2215 418.329 68.4745 418.318 68.7165C418.307 68.9585 418.302 69.1785 418.302 69.3765C418.588 69.3545 418.879 69.338 419.176 69.327C419.484 69.316 419.847 69.3105 420.265 69.3105H427.641Z" fill="black"/>
</g>
</svg>
