<svg width="417" height="119" viewBox="0 0 417 119" fill="none" xmlns="http://www.w3.org/2000/svg">
<g id="Group 1">
<path id="Rectangle 1" d="M0 0H148.576V119H0V0Z" fill="#EC1515"/>
<path id="l" d="M78.5174 74.9145C79.104 74.9145 79.6107 75.1278 80.0374 75.5545C80.464 75.9811 80.6774 76.4878 80.6774 77.0745V89.1545C80.6774 89.7411 80.464 90.2478 80.0374 90.6745C79.6107 91.1011 79.104 91.3145 78.5174 91.3145H31.7974C31.2107 91.3145 30.704 91.1011 30.2774 90.6745C29.8507 90.2478 29.6374 89.7411 29.6374 89.1545V37.4745C29.6374 36.8878 29.8507 36.3811 30.2774 35.9545C30.704 35.5278 31.2107 35.3144 31.7974 35.3144H49.0774C49.664 35.3144 50.1707 35.5278 50.5974 35.9545C51.024 36.3811 51.2374 36.8878 51.2374 37.4745V74.9145H78.5174Z" fill="white"/>
<path id="t" d="M124.846 35.3144C125.432 35.3144 125.939 35.5278 126.366 35.9545C126.792 36.3811 127.006 36.8878 127.006 37.4745V50.3545C127.006 50.9411 126.792 51.4478 126.366 51.8745C125.939 52.3011 125.432 52.5145 124.846 52.5145H107.646V89.1545C107.646 89.7411 107.432 90.2478 107.006 90.6745C106.579 91.1011 106.072 91.3145 105.486 91.3145H89.0057C88.4191 91.3145 87.9124 91.1011 87.4857 90.6745C87.0591 90.2478 86.8457 89.7411 86.8457 89.1545V52.5145H69.6457C69.0591 52.5145 68.5524 52.3011 68.1257 51.8745C67.6991 51.4478 67.4857 50.9411 67.4857 50.3545V37.4745C67.4857 36.8878 67.6991 36.3811 68.1257 35.9545C68.5524 35.5278 69.0591 35.3144 69.6457 35.3144H124.846Z" fill="white"/>
<g id="Group 2">
<path id="lehmann" d="M194.457 69.261C194.435 70.295 194.265 71.0155 193.946 71.4225C193.627 71.8295 193.077 72.033 192.296 72.033H184.656C184.095 72.033 183.639 71.8625 183.287 71.5215C182.946 71.1695 182.775 70.68 182.775 70.053V54.081L182.957 53.8995H184.227C184.898 53.8995 185.366 54.059 185.63 54.378C185.894 54.697 186.026 55.2195 186.026 55.9455V69.393C186.983 69.305 187.896 69.261 188.765 69.261H194.457ZM210.655 69.3105C210.655 70.3335 210.495 71.043 210.176 71.439C209.857 71.824 209.324 72.0165 208.576 72.0165H200.012C199.44 72.0165 198.984 71.846 198.643 71.505C198.302 71.153 198.131 70.6745 198.131 70.0695V54.1965L198.313 54.015H210.127C210.171 54.246 210.198 54.4715 210.209 54.6915C210.22 54.9115 210.226 55.115 210.226 55.302C210.226 55.478 210.204 55.6925 210.16 55.9455C210.127 56.1985 210.066 56.4515 209.978 56.7045H203.197C202.977 56.7045 202.696 56.7045 202.355 56.7045C202.014 56.6935 201.668 56.688 201.316 56.688C201.316 56.93 201.321 57.1885 201.332 57.4635C201.343 57.7385 201.349 58.041 201.349 58.371V61.572C201.69 61.561 202.025 61.5555 202.355 61.5555C202.696 61.5555 202.977 61.5555 203.197 61.5555H208.493C208.57 61.7645 208.614 61.9955 208.625 62.2485C208.647 62.4905 208.658 62.694 208.658 62.859C208.658 63.046 208.647 63.266 208.625 63.519C208.614 63.761 208.57 63.9865 208.493 64.1955H203.197C202.977 64.1955 202.696 64.1955 202.355 64.1955C202.025 64.1845 201.69 64.179 201.349 64.179V67.9575C201.349 68.2215 201.343 68.4745 201.332 68.7165C201.321 68.9585 201.316 69.1785 201.316 69.3765C201.602 69.3545 201.893 69.338 202.19 69.327C202.498 69.316 202.861 69.3105 203.279 69.3105H210.655ZM218.172 72C217.93 72.044 217.66 72.077 217.363 72.099C217.077 72.121 216.808 72.132 216.555 72.132C216.324 72.132 216.054 72.121 215.746 72.099C215.438 72.077 215.163 72.044 214.921 72V54.015C215.163 53.96 215.438 53.927 215.746 53.916C216.054 53.894 216.324 53.883 216.555 53.883C216.808 53.883 217.077 53.894 217.363 53.916C217.66 53.927 217.93 53.96 218.172 54.015V59.3775C218.172 59.7515 218.166 60.0815 218.155 60.3675C218.144 60.6535 218.139 60.9725 218.139 61.3245C218.293 61.3245 218.573 61.319 218.98 61.308C219.398 61.297 219.679 61.2915 219.822 61.2915H224.623C224.755 61.2915 225.025 61.297 225.432 61.308C225.85 61.319 226.136 61.3245 226.29 61.3245C226.29 60.9725 226.284 60.6535 226.273 60.3675C226.262 60.0815 226.257 59.7515 226.257 59.3775V54.015C226.488 53.96 226.746 53.927 227.032 53.916C227.318 53.894 227.588 53.883 227.841 53.883C228.083 53.883 228.358 53.894 228.666 53.916C228.974 53.927 229.254 53.96 229.507 54.015V72C229.254 72.044 228.979 72.077 228.682 72.099C228.396 72.121 228.121 72.132 227.857 72.132C227.604 72.132 227.335 72.121 227.049 72.099C226.763 72.077 226.499 72.044 226.257 72V65.9445C226.257 65.5595 226.262 65.224 226.273 64.938C226.284 64.652 226.29 64.3275 226.29 63.9645C226.136 63.9645 225.85 63.97 225.432 63.981C225.025 63.992 224.755 63.9975 224.623 63.9975H219.822C219.679 63.9975 219.398 63.992 218.98 63.981C218.573 63.97 218.293 63.9645 218.139 63.9645C218.139 64.3275 218.144 64.652 218.155 64.938C218.166 65.224 218.172 65.5595 218.172 65.9445V72ZM236.348 54.015C236.656 53.938 237.013 53.8885 237.42 53.8665C237.827 53.8335 238.185 53.817 238.493 53.817C238.79 53.817 239.142 53.8335 239.549 53.8665C239.956 53.8885 240.297 53.938 240.572 54.015L243.261 62.5125C243.349 62.7875 243.465 63.178 243.608 63.684C243.762 64.179 243.905 64.6795 244.037 65.1855C244.18 65.6805 244.273 66.071 244.317 66.357H244.482C244.526 66.071 244.609 65.6805 244.73 65.1855C244.862 64.6795 244.999 64.179 245.142 63.684C245.296 63.189 245.423 62.7985 245.522 62.5125L248.162 54.015C248.437 53.949 248.778 53.8995 249.185 53.8665C249.603 53.8335 249.96 53.817 250.257 53.817C250.554 53.817 250.917 53.8335 251.346 53.8665C251.786 53.8995 252.144 53.949 252.419 54.015L254.135 71.9505C253.629 72.0825 253.062 72.1485 252.435 72.1485C251.918 72.1485 251.423 72.1045 250.95 72.0165L250.191 62.826C250.147 62.32 250.114 61.737 250.092 61.077C250.07 60.406 250.048 59.746 250.026 59.097C250.015 58.437 250.01 57.865 250.01 57.381H249.828L246 69.3105C245.769 69.3545 245.494 69.3875 245.175 69.4095C244.867 69.4315 244.592 69.4425 244.35 69.4425C244.097 69.4425 243.822 69.4315 243.525 69.4095C243.228 69.3875 242.964 69.3545 242.733 69.3105L238.922 57.381H238.74C238.74 57.865 238.729 58.437 238.707 59.097C238.696 59.746 238.674 60.406 238.641 61.077C238.619 61.737 238.586 62.32 238.542 62.826L237.8 72.0165C237.338 72.1045 236.837 72.1485 236.298 72.1485C235.638 72.1485 235.083 72.0825 234.632 71.9505L236.348 54.015ZM263.274 67.908C263.153 67.908 262.878 67.9025 262.449 67.8915C262.031 67.8805 261.695 67.875 261.442 67.875L259.957 72.0165C259.572 72.1155 259.11 72.165 258.571 72.165C257.933 72.165 257.427 72.088 257.053 71.934L256.954 71.769L263.538 54.015C263.802 53.971 264.121 53.938 264.495 53.916C264.869 53.883 265.193 53.8665 265.468 53.8665C265.721 53.8665 266.018 53.883 266.359 53.916C266.711 53.938 267.019 53.971 267.283 54.015L273.834 71.8515C273.581 71.9725 273.278 72.066 272.926 72.132C272.585 72.198 272.266 72.231 271.969 72.231C271.518 72.231 271.139 72.1375 270.831 71.9505C270.534 71.7635 270.275 71.351 270.055 70.713L269.049 67.875C268.829 67.875 268.515 67.8805 268.108 67.8915C267.712 67.9025 267.448 67.908 267.316 67.908H263.274ZM263.835 61.1595L262.366 65.2515C262.608 65.2515 262.894 65.246 263.224 65.235C263.565 65.224 263.791 65.2185 263.901 65.2185H266.772C266.882 65.2185 267.08 65.224 267.366 65.235C267.652 65.246 267.905 65.2515 268.125 65.2515L266.92 61.8525C266.678 61.1485 266.403 60.307 266.095 59.328C265.798 58.349 265.54 57.491 265.32 56.754H265.171C264.973 57.458 264.748 58.2335 264.495 59.0805C264.242 59.9165 264.022 60.6095 263.835 61.1595ZM282.052 61.539C281.755 61.022 281.425 60.4115 281.062 59.7075C280.699 58.9925 280.386 58.382 280.122 57.876L279.99 57.909C280.023 58.547 280.056 59.273 280.089 60.087C280.122 60.89 280.144 61.66 280.155 62.397C280.177 63.123 280.188 63.6895 280.188 64.0965V72C279.913 72.044 279.643 72.077 279.379 72.099C279.126 72.121 278.89 72.132 278.67 72.132C278.45 72.132 278.202 72.121 277.927 72.099C277.652 72.077 277.383 72.044 277.119 72V54.0645C277.383 54.0095 277.696 53.9655 278.059 53.9325C278.433 53.8995 278.747 53.883 279 53.883C279.275 53.883 279.588 53.894 279.94 53.916C280.303 53.927 280.611 53.96 280.864 54.015L286.953 64.509C287.25 65.015 287.585 65.653 287.959 66.423C288.344 67.193 288.674 67.831 288.949 68.337L289.098 68.304C289.054 67.732 289.004 67.0445 288.949 66.2415C288.905 65.4275 288.867 64.6355 288.834 63.8655C288.801 63.0955 288.784 62.474 288.784 62.001V55.797C288.784 55.082 288.916 54.587 289.18 54.312C289.444 54.026 289.906 53.883 290.566 53.883H291.721L291.903 54.0645V71.967C291.628 72.022 291.309 72.0605 290.946 72.0825C290.594 72.1155 290.286 72.132 290.022 72.132C289.758 72.132 289.433 72.121 289.048 72.099C288.674 72.088 288.366 72.055 288.124 72L282.052 61.539ZM302.484 61.539C302.187 61.022 301.857 60.4115 301.494 59.7075C301.131 58.9925 300.817 58.382 300.553 57.876L300.421 57.909C300.454 58.547 300.487 59.273 300.52 60.087C300.553 60.89 300.575 61.66 300.586 62.397C300.608 63.123 300.619 63.6895 300.619 64.0965V72C300.344 72.044 300.075 72.077 299.811 72.099C299.558 72.121 299.321 72.132 299.101 72.132C298.881 72.132 298.634 72.121 298.359 72.099C298.084 72.077 297.814 72.044 297.55 72V54.0645C297.814 54.0095 298.128 53.9655 298.491 53.9325C298.865 53.8995 299.178 53.883 299.431 53.883C299.706 53.883 300.02 53.894 300.372 53.916C300.735 53.927 301.043 53.96 301.296 54.015L307.384 64.509C307.681 65.015 308.017 65.653 308.391 66.423C308.776 67.193 309.106 67.831 309.381 68.337L309.529 68.304C309.485 67.732 309.436 67.0445 309.381 66.2415C309.337 65.4275 309.298 64.6355 309.265 63.8655C309.232 63.0955 309.216 62.474 309.216 62.001V55.797C309.216 55.082 309.348 54.587 309.612 54.312C309.876 54.026 310.338 53.883 310.998 53.883H312.153L312.334 54.0645V71.967C312.059 72.022 311.74 72.0605 311.377 72.0825C311.025 72.1155 310.717 72.132 310.453 72.132C310.189 72.132 309.865 72.121 309.48 72.099C309.106 72.088 308.798 72.055 308.556 72L302.484 61.539Z" fill="#EC1515"/>
<path id="trade" d="M321.052 58.635C321.052 58.283 321.057 57.964 321.068 57.678C321.079 57.381 321.085 57.0455 321.085 56.6715C320.876 56.6715 320.584 56.677 320.21 56.688C319.847 56.699 319.561 56.7045 319.352 56.7045H315.838C315.794 56.4735 315.761 56.2425 315.739 56.0115C315.717 55.7805 315.706 55.5715 315.706 55.3845C315.706 55.1865 315.717 54.9665 315.739 54.7245C315.761 54.4825 315.794 54.246 315.838 54.015H329.417C329.472 54.202 329.516 54.4165 329.549 54.6585C329.582 54.8895 329.599 55.0875 329.599 55.2525C329.599 55.7255 329.472 56.0885 329.219 56.3415C328.977 56.5835 328.521 56.7045 327.85 56.7045H325.969C325.771 56.7045 325.485 56.699 325.111 56.688C324.748 56.677 324.467 56.6715 324.269 56.6715C324.269 57.0455 324.275 57.381 324.286 57.678C324.297 57.964 324.302 58.283 324.302 58.635V72C324.093 72.044 323.835 72.077 323.527 72.099C323.219 72.121 322.938 72.132 322.685 72.132C322.443 72.132 322.168 72.121 321.86 72.099C321.552 72.077 321.283 72.044 321.052 72V58.635ZM345.887 59.262C345.887 60.439 345.507 61.4565 344.748 62.3145C343.989 63.1615 343.087 63.7115 342.042 63.9645C342.581 64.1735 343.016 64.465 343.346 64.839C343.676 65.213 343.962 65.6695 344.204 66.2085L345.491 69.096C345.689 69.525 345.892 69.9265 346.101 70.3005C346.321 70.6745 346.552 70.977 346.794 71.208C346.585 71.505 346.277 71.747 345.87 71.934C345.474 72.121 345.062 72.2145 344.633 72.2145C344.083 72.2145 343.659 72.0715 343.362 71.7855C343.065 71.4995 342.796 71.0705 342.554 70.4985L340.92 66.786C340.645 66.148 340.299 65.6695 339.881 65.3505C339.474 65.0315 338.847 64.872 338 64.872H335.805V72C335.552 72.044 335.283 72.077 334.997 72.099C334.711 72.121 334.441 72.132 334.188 72.132C333.957 72.132 333.688 72.121 333.38 72.099C333.083 72.077 332.813 72.044 332.571 72V54.18L332.753 54.015C333.897 53.982 334.98 53.9545 336.003 53.9325C337.026 53.9105 338.066 53.8995 339.122 53.8995C341.168 53.8995 342.807 54.3505 344.039 55.2525C345.271 56.1435 345.887 57.48 345.887 59.262ZM335.805 56.358V62.331C336.388 62.32 336.96 62.309 337.521 62.298C338.082 62.287 338.55 62.2815 338.924 62.2815C339.87 62.2815 340.601 62.133 341.118 61.836C341.635 61.528 341.993 61.143 342.191 60.681C342.4 60.219 342.504 59.7625 342.504 59.3115C342.504 58.8385 342.4 58.382 342.191 57.942C341.993 57.491 341.641 57.1225 341.135 56.8365C340.629 56.5395 339.919 56.391 339.006 56.391C338.555 56.391 338.033 56.391 337.439 56.391C336.845 56.391 336.3 56.38 335.805 56.358ZM354.498 67.908C354.377 67.908 354.102 67.9025 353.673 67.8915C353.255 67.8805 352.919 67.875 352.666 67.875L351.181 72.0165C350.796 72.1155 350.334 72.165 349.795 72.165C349.157 72.165 348.651 72.088 348.277 71.934L348.178 71.769L354.762 54.015C355.026 53.971 355.345 53.938 355.719 53.916C356.093 53.883 356.417 53.8665 356.692 53.8665C356.945 53.8665 357.242 53.883 357.583 53.916C357.935 53.938 358.243 53.971 358.507 54.015L365.058 71.8515C364.805 71.9725 364.502 72.066 364.15 72.132C363.809 72.198 363.49 72.231 363.193 72.231C362.742 72.231 362.363 72.1375 362.055 71.9505C361.758 71.7635 361.499 71.351 361.279 70.713L360.273 67.875C360.053 67.875 359.739 67.8805 359.332 67.8915C358.936 67.9025 358.672 67.908 358.54 67.908H354.498ZM355.059 61.1595L353.59 65.2515C353.832 65.2515 354.118 65.246 354.448 65.235C354.789 65.224 355.015 65.2185 355.125 65.2185H357.996C358.106 65.2185 358.304 65.224 358.59 65.235C358.876 65.246 359.129 65.2515 359.349 65.2515L358.144 61.8525C357.902 61.1485 357.627 60.307 357.319 59.328C357.022 58.349 356.764 57.491 356.544 56.754H356.395C356.197 57.458 355.972 58.2335 355.719 59.0805C355.466 59.9165 355.246 60.6095 355.059 61.1595ZM383.242 63.0405C383.242 66.0105 382.582 68.2655 381.262 69.8055C379.942 71.3455 377.792 72.1155 374.811 72.1155C374.008 72.1155 373.287 72.11 372.649 72.099C372.022 72.088 371.384 72.077 370.735 72.066C370.097 72.055 369.36 72.0385 368.524 72.0165L368.343 71.835V54.18L368.524 54.015C369.371 53.993 370.114 53.9765 370.752 53.9655C371.39 53.9435 372.022 53.927 372.649 53.916C373.287 53.905 374.008 53.8995 374.811 53.8995C377.781 53.8995 379.926 54.6915 381.246 56.2755C382.577 57.8595 383.242 60.1145 383.242 63.0405ZM379.876 63.0405C379.876 62.2815 379.816 61.517 379.695 60.747C379.574 59.977 379.337 59.273 378.985 58.635C378.633 57.986 378.122 57.469 377.451 57.084C376.78 56.699 375.894 56.5065 374.794 56.5065C374.178 56.5065 373.623 56.501 373.128 56.49C372.644 56.479 372.127 56.4735 371.577 56.4735V69.5745C372.138 69.5745 372.66 69.569 373.144 69.558C373.628 69.547 374.178 69.5415 374.794 69.5415C375.894 69.5415 376.78 69.349 377.451 68.964C378.122 68.568 378.633 68.051 378.985 67.413C379.337 66.775 379.574 66.0765 379.695 65.3175C379.816 64.5475 379.876 63.7885 379.876 63.0405ZM400.041 69.3105C400.041 70.3335 399.881 71.043 399.562 71.439C399.243 71.824 398.71 72.0165 397.962 72.0165H389.398C388.826 72.0165 388.37 71.846 388.029 71.505C387.688 71.153 387.517 70.6745 387.517 70.0695V54.1965L387.699 54.015H399.513C399.557 54.246 399.584 54.4715 399.595 54.6915C399.606 54.9115 399.612 55.115 399.612 55.302C399.612 55.478 399.59 55.6925 399.546 55.9455C399.513 56.1985 399.452 56.4515 399.364 56.7045H392.583C392.363 56.7045 392.082 56.7045 391.741 56.7045C391.4 56.6935 391.054 56.688 390.702 56.688C390.702 56.93 390.707 57.1885 390.718 57.4635C390.729 57.7385 390.735 58.041 390.735 58.371V61.572C391.076 61.561 391.411 61.5555 391.741 61.5555C392.082 61.5555 392.363 61.5555 392.583 61.5555H397.879C397.956 61.7645 398 61.9955 398.011 62.2485C398.033 62.4905 398.044 62.694 398.044 62.859C398.044 63.046 398.033 63.266 398.011 63.519C398 63.761 397.956 63.9865 397.879 64.1955H392.583C392.363 64.1955 392.082 64.1955 391.741 64.1955C391.411 64.1845 391.076 64.179 390.735 64.179V67.9575C390.735 68.2215 390.729 68.4745 390.718 68.7165C390.707 68.9585 390.702 69.1785 390.702 69.3765C390.988 69.3545 391.279 69.338 391.576 69.327C391.884 69.316 392.247 69.3105 392.665 69.3105H400.041Z" fill="white"/>
</g>
</g>
</svg>
